#N canvas 567 137 791 764 10;
#X declare -lib mrpeach;
#X obj -69 719 dac~;
#X obj 77 296 vsl 15 128 2 12 0 0 empty empty empty 0 -9 0 10 -262144
-1 -1 7620 1;
#X floatatom 77 462 5 0 0 0 - - -;
#X obj 77 437 i;
#X obj 258 293 vsl 15 128 0 12 0 0 empty empty empty 0 -9 0 10 -262144
-1 -1 5292 1;
#X floatatom 258 453 5 0 0 0 - - -;
#X obj 258 431 i;
#X msg 77 267 8;
#X msg 258 266 5;
#X text 11 317 bit-depth control? in the sense of quantizing audio.
similiar to decimate but without the sample-rate control;
#X text 221 392 this control chooses a bit to invert;
#X obj -71 485 expr~ if ($v1 == $f2 || $v1 == (-1 * $f2) \, -1*$v1
\, $v1);
#X obj -71 533 *~ 0.125;
#X obj -26 510 expr 1 / $f1;
#X obj -71 408 *~ 8;
#X obj -71 438 quantize~ 1;
#X obj -8 536 tgl 15 0 empty empty empty 17 7 0 10 -262144 -1 -1 1
1;
#X obj -8 563 metro 200;
#N canvas 0 22 450 300 (subpatch) 0;
#X array visualize 300 float 0;
#X coords 0 1 299 -1 200 150 1 0 0;
#X restore 135 523 graph;
#X obj -81 349 mtof;
#X obj -11 596 tabwrite~ visualize;
#X obj -89 -1 import mrpeach;
#X obj -87 58 unpackOSC;
#X obj -87 33 udpreceive 8090;
#X floatatom -87 186 5 0 0 0 - - -;
#X obj 13 108 routeOSC /tweet;
#X obj -87 161 routeOSC /raw /avg;
#X floatatom -35 186 5 0 0 0 - - -;
#X obj -86 107 routeOSC /mood;
#X obj 164 214 loadbang;
#X obj -22 635 hsl 128 15 0 1 0 0 empty empty tone_volume -2 -8 0 10
-4032 -1 -1 900 1;
#X obj 250 47 soundfiler;
#X obj 385 657 tabplay~ snare;
#N canvas 0 22 450 278 (subpatch) 0;
#X array snare 4441 float 2;
#X coords 0 1 4441 -1 100 50 1 0 0;
#X restore 250 104 graph;
#X floatatom 250 71 15 0 0 0 - - -;
#X obj -71 634 *~ \$1;
#X obj -81 378 osc~ 440;
#X obj 13 134 send tweet;
#X obj 385 582 receive tweet;
#X text -94 228 mood ranges from 0-127;
#X obj 385 606 bng 15 250 50 0 empty empty empty 17 7 0 10 -262144
-1 -1;
#X msg 250 22 read -resize ./snare.wav snare;
#X obj -87 211 send raw;
#X obj -30 211 send avg;
#X obj -81 323 receive raw;
#X text 129 80 comment;
#X msg 385 630 1000 2000;
#X obj 250 -4 loadbang;
#X obj 385 689 *~ \$1;
#X obj 446 696 hsl 128 15 0 1 0 0 empty empty sample_volume -2 -8 0
10 -4032 -1 -1 12700 1;
#X obj 484 22 udpreceive 3334;
#X text 556 25;
#X text 633 119;
#X text 448 629 play part of sample;
#X text -21 56;
#X text 6 -2;
#X obj 484 50 unpackOSC;
#X msg 484 104 \$1;
#X msg 561 104 \$2;
#X text 481 1 Receive mouse position;
#X obj 484 156 send mouseX;
#X obj 561 156 send mouseY;
#X floatatom 484 128 5 0 0 0 - - -;
#X floatatom 561 128 5 0 0 0 - - -;
#X text 546 104;
#X obj 484 76 routeOSC /mouse;
#X obj 483 237 mtof;
#X obj 483 211 receive mouseX;
#X floatatom 484 260 15 0 0 0 - - -;
#X connect 1 0 3 0;
#X connect 2 0 13 0;
#X connect 2 0 14 1;
#X connect 3 0 2 0;
#X connect 4 0 6 0;
#X connect 5 0 11 1;
#X connect 6 0 5 0;
#X connect 7 0 1 0;
#X connect 8 0 4 0;
#X connect 11 0 12 0;
#X connect 12 0 20 0;
#X connect 12 0 35 0;
#X connect 13 0 12 1;
#X connect 14 0 15 0;
#X connect 15 0 11 0;
#X connect 16 0 17 0;
#X connect 17 0 20 0;
#X connect 19 0 36 0;
#X connect 22 0 25 0;
#X connect 22 0 28 0;
#X connect 23 0 22 0;
#X connect 24 0 42 0;
#X connect 25 0 37 0;
#X connect 26 0 24 0;
#X connect 26 1 27 0;
#X connect 27 0 43 0;
#X connect 28 0 26 0;
#X connect 29 0 8 0;
#X connect 29 0 7 0;
#X connect 29 0 16 0;
#X connect 30 0 35 1;
#X connect 31 0 34 0;
#X connect 32 0 48 0;
#X connect 35 0 0 0;
#X connect 35 0 0 1;
#X connect 36 0 14 0;
#X connect 38 0 40 0;
#X connect 40 0 46 0;
#X connect 41 0 31 0;
#X connect 44 0 19 0;
#X connect 46 0 32 0;
#X connect 47 0 41 0;
#X connect 48 0 0 0;
#X connect 48 0 0 1;
#X connect 49 0 48 1;
#X connect 50 0 56 0;
#X connect 56 0 65 0;
#X connect 57 0 62 0;
#X connect 58 0 63 0;
#X connect 62 0 60 0;
#X connect 63 0 61 0;
#X connect 65 0 57 0;
#X connect 65 0 58 0;
#X connect 66 0 68 0;
#X connect 67 0 66 0;
#X connect 68 0 19 0;
