#N canvas -797 200 546 472 10;
#X declare -lib mrpeach;
#X obj -48 43 import mrpeach;
#X text 56 41 <-- Import mrpeach objects;
#X text -49 6 Receive OSC messages (http://en.flossmanuals.net/pure-data/ch065_osc/)
;
#X text 166 80 <-- listen to port 41234;
#X obj 61 116 unpackOSC;
#X obj 61 81 udpreceive 8090;
#X floatatom 61 243 5 0 0 0 - - -;
#X obj 161 160 routeOSC /tweet;
#X obj 61 199 routeOSC /raw /avg;
#X floatatom 113 243 5 0 0 0 - - -;
#X obj 61 159 routeOSC /mood;
#X text 128 114 <-- route messages;
#X text 182 198 <-- raw and avg mood scores (-1 to 1);
#X floatatom -24 269 5 0 0 0 Freq - -;
#X obj -24 300 sig~ 440;
#X obj -24 329 phasor~ 440;
#X obj 28 360 *~;
#X obj 28 389 dac~;
#X obj 62 330 line~;
#X connect 4 0 7 0;
#X connect 4 0 10 0;
#X connect 5 0 4 0;
#X connect 6 0 18 0;
#X connect 8 0 6 0;
#X connect 8 1 9 0;
#X connect 9 0 18 1;
#X connect 10 0 8 0;
#X connect 13 0 14 0;
#X connect 14 0 15 0;
#X connect 15 0 16 0;
#X connect 16 0 17 0;
#X connect 16 0 17 1;
#X connect 18 0 16 1;
